<?xml version="1.0" standalone="no"?><!DOCTYPE svg PUBLIC "-//W3C//DTD SVG 1.1//EN" "http://www.w3.org/Graphics/SVG/1.1/DTD/svg11.dtd"><svg t="1733633778604" class="icon" viewBox="0 0 1024 1024" version="1.1" xmlns="http://www.w3.org/2000/svg" p-id="1137" width="24" height="24" xmlns:xlink="http://www.w3.org/1999/xlink"><path d="M448 864c0 38.4-25.6 64-64 64H307.2v51.2c0 25.6-25.6 44.8-51.2 44.8s-51.2-19.2-51.2-51.2v-51.2H128c-38.4 0-64-25.6-64-64v-704c0-38.4 25.6-64 64-64h76.8V51.2c0-32 25.6-51.2 51.2-51.2s51.2 19.2 51.2 51.2v51.2H384c38.4 0 64 25.6 64 64v697.6zM352 832V192h-192v640h192z m608-64c0 38.4-25.6 64-64 64h-76.8v140.8c0 25.6-19.2 51.2-51.2 51.2s-51.2-19.2-51.2-51.2V832H640c-38.4 0-64-25.6-64-64V256c0-38.4 25.6-64 64-64h76.8V51.2c0-32 25.6-51.2 51.2-51.2s51.2 19.2 51.2 51.2V192H896c38.4 0 64 25.6 64 64v512z m-96-32v-448h-192v448h192z" fill="#575D6C" p-id="1138"></path></svg>